<svg xmlns="http://www.w3.org/2000/svg" width="90" height="90" fill="none"><path fill="#000" d="M54.054 53.038V0h17.921q6.242 0 10.204 2.253 3.988 2.227 5.905 6.034 1.915 3.807 1.916 8.495t-1.916 8.52q-1.89 3.832-5.853 6.112-3.963 2.253-10.152 2.253H59.234v-5.698h12.638q4.273 0 6.863-1.476t3.755-3.988q1.191-2.538 1.191-5.723t-1.191-5.698q-1.165-2.512-3.781-3.936-2.617-1.45-6.94-1.45H60.476v47.34h-6.423ZM34.806 0h6.423v35.117q0 5.439-2.564 9.711-2.538 4.248-7.174 6.708-4.635 2.434-10.877 2.434-6.24 0-10.877-2.434-4.635-2.46-7.199-6.708Q0 40.555 0 35.117V0h6.423v34.599q0 3.885 1.709 6.915 1.71 3.003 4.869 4.739 3.185 1.71 7.613 1.709t7.614-1.71q3.186-1.734 4.869-4.738 1.71-3.03 1.71-6.915V0Z"/><path fill="#000" d="M54.054 66h17.921q6.242 0 10.204 2.505 3.988 2.476 5.905 6.708 1.915 4.233 1.916 9.443 0 2.81-.557 5.344h-6.57q.808-2.428.808-5.344 0-3.54-1.191-6.334-1.165-2.792-3.781-4.376-2.617-1.612-6.94-1.612H60.476V90h-6.423V66Zm-12.825 0h-6.423v24h6.423zM6.423 66H0v24h6.423z" opacity=".3"/></svg>