<svg xmlns="http://www.w3.org/2000/svg" width="90" height="90" fill="none"><path fill="#fff" d="M54.054 53.038V0h17.921c4.161 0 7.563.751 10.204 2.253 2.659 1.485 4.627 3.496 5.905 6.034C89.36 10.825 90 13.657 90 16.782c0 3.125-.639 5.965-1.916 8.52-1.26 2.555-3.212 4.592-5.853 6.112-2.642 1.502-6.026 2.253-10.152 2.253H59.234v-5.698h12.638c2.849 0 5.136-.492 6.863-1.476 1.726-.984 2.978-2.313 3.755-3.988.794-1.692 1.191-3.6 1.191-5.723 0-2.124-.397-4.023-1.191-5.698-.777-1.675-2.037-2.987-3.781-3.936-1.744-.967-4.058-1.45-6.94-1.45H60.476v47.34h-6.423ZM34.806 0h6.423v35.117c0 3.626-.855 6.863-2.564 9.711-1.692 2.832-4.083 5.068-7.174 6.708-3.09 1.623-6.716 2.434-10.877 2.434-4.16 0-7.786-.811-10.877-2.434-3.09-1.64-5.49-3.876-7.199-6.708C.846 41.98 0 38.742 0 35.117V0h6.423v34.599c0 2.59.57 4.895 1.709 6.915 1.14 2.002 2.762 3.582 4.869 4.739 2.123 1.14 4.661 1.709 7.613 1.709 2.953 0 5.49-.57 7.614-1.71 2.124-1.156 3.747-2.736 4.869-4.738 1.14-2.02 1.71-4.325 1.71-6.915V0Z"/><path fill="#fff" d="M54.054 66h17.921c4.161 0 7.563.835 10.204 2.505 2.659 1.65 4.627 3.887 5.905 6.708C89.36 78.035 90 81.183 90 84.656c0 1.874-.186 3.655-.557 5.344h-6.57c.539-1.618.808-3.4.808-5.344 0-2.36-.397-4.472-1.191-6.334-.777-1.861-2.037-3.32-3.781-4.376-1.744-1.075-4.058-1.612-6.94-1.612H60.476V90h-6.423V66Zm-12.825 0h-6.423v24h6.423V66ZM6.423 66H0v24h6.423V66Z" opacity=".3"/></svg>